<svg xmlns="http://www.w3.org/2000/svg" viewBox="0 0 760 180" role="img" aria-labelledby="family-daybook-logo-title family-daybook-logo-description">
  <title id="family-daybook-logo-title">Family Daybook</title>
  <desc id="family-daybook-logo-description">An open daybook with a heart-shaped center beside the Family Daybook wordmark.</desc>
  <g transform="translate(8)">
    <path fill="#B4CDBA" d="M17.1 31.5h27.4c21 0 37.6 14 37.6 31.7v86c-14.5-10.8-35.4-15.6-64.4-15.6-6 0-9.7-3.8-9.7-9.7V41.2c0-5.9 3.8-9.7 9.1-9.7Z" />
    <path fill="#17483C" d="M86.4 63.2c0-17.7 16.7-31.7 37.6-31.7h26.9c5.9 0 9.1 3.8 9.1 9.7v82.7c0 5.9-3.8 9.7-9.1 9.7-29 0-50 4.8-64.5 15.6v-86Z" />
    <circle cx="140.1" cy="53" r="7.8" fill="#B8D0BD" />
    <path fill="#F7FAF8" d="M84.3 95.5c-4.9-7.6-10.2-10.8-15.6-10.8-8.1 0-14.5 5.9-14.5 14 0 10.2 7.5 17.7 14.5 24.7l15.6 15 15-15c7.5-7 14.5-14.5 14.5-24.7 0-8.1-6.4-14-14.5-14-5.4 0-10.2 3.2-15 10.8Z" />
  </g>
  <g fill="#17483C" transform="translate(210 119) scale(0.03515625 -0.03515625)">
    <path transform="translate(0.000 0.000)" d="M1199 1064L1124 1064Q1103 1143 1036.5 1233Q970 1323 909 1332Q878 1336 835.5 1338Q793 1340 739 1340L501 1340L501 770L664 770Q738 770 779 785.5Q820 801 849 833Q869 855 885.5 901.5Q902 948 907 1001L983 1001L983 444L907 444Q904 488 886.5 544Q869 600 849 625Q819 662 773.5 675.5Q728 689 664 689L501 689L501 200Q501 167 514 141Q527 115 560 99Q575 92 625 82Q675 72 701 71L701 0L86 0L86 71Q116 73 166 77.5Q216 82 231 89Q261 102 274.5 127.5Q288 153 288 189L288 1213Q288 1246 277 1271.5Q266 1297 231 1313Q204 1326 158.5 1336Q113 1346 86 1348L86 1419L1199 1419Z" />
    <path transform="translate(1170.111 0.000)" d="M1006 18Q959 1 923.5 -9.5Q888 -20 843 -20Q765 -20 718.5 16.5Q672 53 659 123L653 123Q588 51 513.5 13Q439 -25 334 -25Q223 -25 151.5 43Q80 111 80 221Q80 278 96 323Q112 368 144 404Q169 434 210 457.5Q251 481 287 495Q332 512 469.5 558Q607 604 655 630L655 729Q655 742 649.5 779Q644 816 626 849Q606 886 569.5 913.5Q533 941 466 941Q420 941 380.5 925.5Q341 910 325 893Q325 873 334.5 834Q344 795 344 762Q344 727 312.5 698Q281 669 225 669Q175 669 151.5 704.5Q128 740 128 784Q128 830 160.5 872Q193 914 245 947Q290 975 354 994.5Q418 1014 479 1014Q563 1014 625.5 1002.5Q688 991 739 953Q790 916 816.5 852.5Q843 789 843 689Q843 546 840 435.5Q837 325 837 194Q837 155 850.5 132Q864 109 892 93Q907 84 939.5 83Q972 82 1006 82ZM657 546Q572 521 508 497Q444 473 389 437Q339 403 310 356.5Q281 310 281 246Q281 163 324.5 124Q368 85 435 85Q506 85 560 119.5Q614 154 651 201Z" />
    <path transform="translate(2145.222 0.000)" d="M1761 0L1280 0L1280 66Q1303 68 1326.5 70Q1350 72 1368 78Q1396 87 1409.5 109.5Q1423 132 1423 168L1423 677Q1423 781 1375.5 837.5Q1328 894 1257 894Q1208 894 1165 879Q1122 864 1086 837Q1057 815 1037.5 789.5Q1018 764 1008 747L1008 178Q1008 143 1020 120.5Q1032 98 1061 86Q1084 77 1102.5 72.5Q1121 68 1151 66L1151 0L680 0L680 66Q703 68 724.5 70Q746 72 764 78Q792 87 805.5 109.5Q819 132 819 168L819 677Q819 781 771.5 837.5Q724 894 653 894Q604 894 561 878.5Q518 863 482 836Q453 814 433 786.5Q413 759 403 745L403 180Q403 146 417 123Q431 100 459 88Q480 78 502 73Q524 68 551 66L551 0L72 0L72 66Q95 68 119.5 70Q144 72 162 78Q190 87 203.5 109.5Q217 132 217 168L217 781Q217 813 202.5 838.5Q188 864 162 882Q143 894 115 901.5Q87 909 57 911L57 976L387 998L401 984L401 843L408 843Q433 868 469 902Q505 936 536 957Q571 981 623.5 997Q676 1013 737 1013Q833 1013 902 961.5Q971 910 1001 837Q1037 872 1064.5 898.5Q1092 925 1137 955Q1175 981 1226.5 997Q1278 1013 1341 1013Q1466 1013 1539 931Q1612 849 1612 679L1612 178Q1612 143 1624 120.5Q1636 98 1665 86Q1688 77 1710.5 72.5Q1733 68 1761 66Z" />
    <path transform="translate(3892.333 0.000)" d="M551 0L74 0L74 66Q97 68 121.5 70Q146 72 164 78Q192 87 205.5 109.5Q219 132 219 168L219 777Q219 809 204.5 835.5Q190 862 164 880Q145 892 109 900.5Q73 909 43 911L43 976L391 998L405 984L405 180Q405 145 418.5 122Q432 99 461 88Q483 79 504 73.5Q525 68 551 66ZM425 1387Q425 1330 387.5 1287.5Q350 1245 295 1245Q244 1245 206.5 1285.5Q169 1326 169 1378Q169 1433 206.5 1474Q244 1515 295 1515Q352 1515 388.5 1476.5Q425 1438 425 1387Z" />
    <path transform="translate(4435.444 0.000)" d="M534 0L53 0L53 66Q76 68 102 70.5Q128 73 145 78Q173 87 187 109.5Q201 132 201 168L201 1310Q201 1346 185.5 1377.5Q170 1409 145 1427Q127 1439 79 1449Q31 1459 2 1461L2 1525L373 1548L387 1533L387 180Q387 145 400 122.5Q413 100 442 88Q464 78 485.5 73Q507 68 534 66Z" />
    <path transform="translate(4964.556 0.000)" d="M-3 -322Q-3 -272 24.5 -240.5Q52 -209 93 -209Q125 -209 148 -221Q171 -233 189 -252Q204 -267 221 -293Q238 -319 248 -336Q298 -309 367.5 -195Q437 -81 468 5Q373 242 296 429Q219 616 135 816Q116 862 71 887.5Q26 913 -19 920L-19 986L431 986L431 916Q401 915 359 903.5Q317 892 317 877Q317 871 321.5 857Q326 843 332 828Q370 729 448 542.5Q526 356 569 244Q614 351 662.5 465.5Q711 580 771 736Q778 755 791 788.5Q804 822 804 846Q804 872 758.5 894.5Q713 917 672 922L672 986L1038 986L1038 924Q1008 919 959 889.5Q910 860 886 806Q767 530 674.5 303Q582 76 534 -31Q471 -171 421.5 -249.5Q372 -328 325 -373Q279 -415 241.5 -429.5Q204 -444 164 -444Q86 -444 41.5 -407Q-3 -370 -3 -322Z" />
    <path transform="translate(6352.778 0.000)" d="M1457 701Q1457 520 1389 387Q1321 254 1212 169Q1102 84 965 42Q828 0 682 0L94 0L94 71Q123 71 169.5 76.5Q216 82 231 89Q261 102 274.5 127.5Q288 153 288 189L288 1213Q288 1247 276.5 1274Q265 1301 231 1317Q200 1332 164 1339Q128 1346 102 1348L102 1419L722 1419Q850 1419 974 1379.5Q1098 1340 1190 1273Q1315 1184 1386 1040Q1457 896 1457 701ZM1212 702Q1212 845 1174 960.5Q1136 1076 1063 1162Q994 1244 893.5 1291Q793 1338 670 1338Q629 1338 577.5 1336.5Q526 1335 501 1334L501 243Q501 152 554 117Q607 82 717 82Q844 82 939 127Q1034 172 1093 252Q1155 336 1183.5 446.5Q1212 557 1212 702Z" />
    <path transform="translate(7829.889 0.000)" d="M1006 18Q959 1 923.5 -9.5Q888 -20 843 -20Q765 -20 718.5 16.5Q672 53 659 123L653 123Q588 51 513.5 13Q439 -25 334 -25Q223 -25 151.5 43Q80 111 80 221Q80 278 96 323Q112 368 144 404Q169 434 210 457.5Q251 481 287 495Q332 512 469.5 558Q607 604 655 630L655 729Q655 742 649.5 779Q644 816 626 849Q606 886 569.5 913.5Q533 941 466 941Q420 941 380.5 925.5Q341 910 325 893Q325 873 334.5 834Q344 795 344 762Q344 727 312.5 698Q281 669 225 669Q175 669 151.5 704.5Q128 740 128 784Q128 830 160.5 872Q193 914 245 947Q290 975 354 994.5Q418 1014 479 1014Q563 1014 625.5 1002.5Q688 991 739 953Q790 916 816.5 852.5Q843 789 843 689Q843 546 840 435.5Q837 325 837 194Q837 155 850.5 132Q864 109 892 93Q907 84 939.5 83Q972 82 1006 82ZM657 546Q572 521 508 497Q444 473 389 437Q339 403 310 356.5Q281 310 281 246Q281 163 324.5 124Q368 85 435 85Q506 85 560 119.5Q614 154 651 201Z" />
    <path transform="translate(8805.000 0.000)" d="M-3 -322Q-3 -272 24.5 -240.5Q52 -209 93 -209Q125 -209 148 -221Q171 -233 189 -252Q204 -267 221 -293Q238 -319 248 -336Q298 -309 367.5 -195Q437 -81 468 5Q373 242 296 429Q219 616 135 816Q116 862 71 887.5Q26 913 -19 920L-19 986L431 986L431 916Q401 915 359 903.5Q317 892 317 877Q317 871 321.5 857Q326 843 332 828Q370 729 448 542.5Q526 356 569 244Q614 351 662.5 465.5Q711 580 771 736Q778 755 791 788.5Q804 822 804 846Q804 872 758.5 894.5Q713 917 672 922L672 986L1038 986L1038 924Q1008 919 959 889.5Q910 860 886 806Q767 530 674.5 303Q582 76 534 -31Q471 -171 421.5 -249.5Q372 -328 325 -373Q279 -415 241.5 -429.5Q204 -444 164 -444Q86 -444 41.5 -407Q-3 -370 -3 -322Z" />
    <path transform="translate(9756.111 0.000)" d="M1073 494Q1073 272 933 121Q793 -30 608 -30Q527 -30 448.5 -5Q370 20 301 62L227 -53L165 -39Q170 35 172 139Q174 243 174 340L174 1316Q174 1350 158.5 1384Q143 1418 119 1433Q100 1446 55.5 1452.5Q11 1459 -16 1461L-16 1525L346 1548L360 1533L360 883L367 881Q429 947 502.5 980Q576 1013 647 1013Q829 1013 951 869Q1073 725 1073 494ZM864 487Q864 561 848 638Q832 715 798 772Q764 830 709 866Q654 902 577 902Q507 902 454.5 874.5Q402 847 360 800L360 226Q366 202 383.5 170Q401 138 431 109Q461 81 499 63.5Q537 46 592 46Q714 46 789 164Q864 282 864 487Z" />
    <path transform="translate(10846.222 0.000)" d="M1033 503Q1033 399 1000 298.5Q967 198 906 128Q837 48 746 9Q655 -30 542 -30Q448 -30 363 5.5Q278 41 212 109Q147 176 108.5 272.5Q70 369 70 489Q70 720 204.5 867Q339 1014 557 1014Q764 1014 898.5 874.5Q1033 735 1033 503ZM826 501Q826 576 811 659.5Q796 743 766 801Q734 863 682 900.5Q630 938 555 938Q478 938 423.5 900Q369 862 335 796Q303 735 290 657Q277 579 277 506Q277 410 292.5 328.5Q308 247 342 183Q376 119 427.5 82.5Q479 46 555 46Q680 46 753 167Q826 288 826 501Z" />
    <path transform="translate(11893.333 0.000)" d="M1033 503Q1033 399 1000 298.5Q967 198 906 128Q837 48 746 9Q655 -30 542 -30Q448 -30 363 5.5Q278 41 212 109Q147 176 108.5 272.5Q70 369 70 489Q70 720 204.5 867Q339 1014 557 1014Q764 1014 898.5 874.5Q1033 735 1033 503ZM826 501Q826 576 811 659.5Q796 743 766 801Q734 863 682 900.5Q630 938 555 938Q478 938 423.5 900Q369 862 335 796Q303 735 290 657Q277 579 277 506Q277 410 292.5 328.5Q308 247 342 183Q376 119 427.5 82.5Q479 46 555 46Q680 46 753 167Q826 288 826 501Z" />
    <path transform="translate(12940.444 0.000)" d="M1117 0L819 0Q741 113 652 242Q563 371 467 493L385 416L385 182Q385 146 398 122.5Q411 99 440 88Q464 78 486 73Q508 68 537 66L537 0L53 0L53 66Q76 68 101 70.5Q126 73 143 78Q171 87 185 109.5Q199 132 199 168L199 1314Q199 1351 183.5 1383.5Q168 1416 143 1433Q122 1449 77.5 1454Q33 1459 6 1461L6 1525L371 1548L385 1533L385 490Q463 568 553.5 657.5Q644 747 706 817Q714 826 723.5 840.5Q733 855 733 864Q733 891 689.5 904Q646 917 606 922L606 986L1040 986L1040 924Q956 899 891.5 861.5Q827 824 793 794Q769 774 725 729Q681 684 602 611Q684 510 786.5 369Q889 228 936 165Q980 106 1015 88Q1050 70 1117 66Z" />
  </g>
</svg>
