<svg xmlns="http://www.w3.org/2000/svg" viewBox="0 0 192 192">
  <rect x="4" y="4" width="184" height="184" rx="42" fill="#F7FAF8" />
  <g transform="translate(12)">
    <path fill="#B4CDBA" d="M17.1 31.5h27.4c21 0 37.6 14 37.6 31.7v86c-14.5-10.8-35.4-15.6-64.4-15.6-6 0-9.7-3.8-9.7-9.7V41.2c0-5.9 3.8-9.7 9.1-9.7Z" />
    <path fill="#17483C" d="M86.4 63.2c0-17.7 16.7-31.7 37.6-31.7h26.9c5.9 0 9.1 3.8 9.1 9.7v82.7c0 5.9-3.8 9.7-9.1 9.7-29 0-50 4.8-64.5 15.6v-86Z" />
    <circle cx="140.1" cy="53" r="7.8" fill="#B8D0BD" />
    <path fill="#F7FAF8" d="M84.3 95.5c-4.9-7.6-10.2-10.8-15.6-10.8-8.1 0-14.5 5.9-14.5 14 0 10.2 7.5 17.7 14.5 24.7l15.6 15 15-15c7.5-7 14.5-14.5 14.5-24.7 0-8.1-6.4-14-14.5-14-5.4 0-10.2 3.2-15 10.8Z" />
  </g>
</svg>
